<svg width="48" height="48" viewBox="0 0 48 48" fill="none" xmlns="http://www.w3.org/2000/svg">
<g clip-path="url(#clip0_256_10002)">
<g filter="url(#filter0_i_256_10002)">
<rect width="48" height="48" rx="6" fill="url(#paint0_linear_256_10002)"/>
</g>
<path opacity="0.2" d="M3.24782 5.68529L3.24989 5.69841L3.25334 5.71153L4.35612 9.92586C5.35513 13.7441 8.1327 16.8469 11.8173 18.2613L14.507 19.2936L14.5284 19.3026L14.5505 19.3068L18.3505 20.0159L14.5401 20.9012L14.5201 20.906L14.5014 20.9136L11.5584 22.1221C8.02269 23.5744 5.36777 26.5945 4.3796 30.2869L3.25403 34.4923L3.24989 34.5061L3.24782 34.5192L1.98828 42.8319L0.730129 34.5192L0.728058 34.5061L0.724605 34.4916L-0.356771 30.452C-1.37028 26.6649 -4.13523 23.591 -7.79451 22.1842L-11.1063 20.9109L-11.1256 20.904L-11.145 20.8998L-15.3911 20.0153L-11.1547 19.3075L-11.1326 19.3033L-11.1111 19.2957L-8.04518 18.195C-4.24279 16.829 -1.35874 13.6751 -0.336055 9.76635L0.724605 5.71153L0.728058 5.69841L0.730129 5.68529L1.98897 -2.81587L3.24782 5.68529Z" fill="url(#paint1_linear_256_10002)" stroke="url(#paint2_linear_256_10002)" stroke-width="0.5"/>
<path opacity="0.1" d="M40.3703 30.2747L40.3724 30.2878L40.3758 30.3009L40.5498 30.9652C41.2391 33.5999 43.156 35.7415 45.6984 36.7174L45.7192 36.7257L45.7413 36.7298L46.8827 36.9432L45.7309 37.2111L45.7116 37.2153L45.6922 37.2235L45.222 37.4328C42.909 38.5444 41.1845 40.6135 40.5167 43.109L40.3765 43.6358L40.3724 43.6497L40.3703 43.6628L39.9152 46.6618L39.4622 43.6635L39.4567 43.6358L39.3801 43.3507C38.6286 40.5429 36.5784 38.2645 33.8654 37.2215L33.8468 37.2139L33.8268 37.209L32.5458 36.9432L33.8164 36.7305L33.8392 36.7271L33.8606 36.7195C36.5664 35.7473 38.6185 33.503 39.3462 30.7215L39.456 30.3009L39.4595 30.2878L39.4622 30.274L39.9152 27.208L40.3703 30.2747Z" fill="url(#paint3_linear_256_10002)" stroke="url(#paint4_linear_256_10002)" stroke-width="0.5"/>
<path d="M34.4974 17.9555V11.6084C34.4974 10.7667 34.1291 9.9595 33.4736 9.36433C32.818 8.76917 31.9289 8.43481 31.0019 8.43481H16.1459C15.2188 8.43481 14.3297 8.76917 13.6742 9.36433C13.0187 9.9595 12.6504 10.7667 12.6504 11.6084V30.0251C12.6507 30.5005 12.7687 30.9697 12.9956 31.3982C13.2224 31.8266 13.5525 32.2033 13.9612 32.5004L19.3705 36.4436C19.4347 36.4909 19.5124 36.5207 19.5945 36.5295C19.6766 36.5383 19.7598 36.5258 19.8344 36.4934C19.909 36.461 19.9719 36.41 20.0159 36.3464C20.0598 36.2829 20.083 36.2093 20.0827 36.1342V23.1126C20.0827 23.0074 20.1288 22.9065 20.2107 22.8321C20.2927 22.7577 20.4038 22.7159 20.5197 22.7159H24.4521C25.1474 22.7159 25.8143 22.9667 26.3059 23.413C26.7976 23.8594 27.0738 24.4648 27.0738 25.0961V36.1342C27.0738 36.2089 27.0971 36.2821 27.141 36.3453C27.1848 36.4085 27.2475 36.4592 27.3216 36.4916C27.3958 36.5239 27.4786 36.5366 27.5603 36.5281C27.6421 36.5196 27.7196 36.4903 27.7838 36.4436L33.1931 32.5004C33.6019 32.2033 33.9319 31.8266 34.1588 31.3982C34.3857 30.9697 34.5036 30.5005 34.5039 30.0251V24.3027C34.5039 23.461 34.1357 22.6538 33.4801 22.0586C32.8246 21.4635 31.9355 21.1291 31.0084 21.1291C31.9344 21.1275 32.8218 20.7925 33.4759 20.1975C34.13 19.6025 34.4974 18.7962 34.4974 17.9555ZM24.4478 19.5423H20.5153C20.3994 19.5423 20.2883 19.5005 20.2063 19.4261C20.1244 19.3517 20.0784 19.2508 20.0784 19.1456V12.0051C20.0784 11.8999 20.1244 11.799 20.2063 11.7246C20.2883 11.6502 20.3994 11.6084 20.5153 11.6084H26.6325C26.7484 11.6084 26.8595 11.6502 26.9414 11.7246C27.0234 11.799 27.0694 11.8999 27.0694 12.0051V17.1622C27.0694 17.7934 26.7932 18.3988 26.3015 18.8452C25.8099 19.2916 25.1431 19.5423 24.4478 19.5423Z" fill="url(#paint5_linear_256_10002)"/>
</g>
<defs>
<filter id="filter0_i_256_10002" x="0" y="0" width="48" height="48" filterUnits="userSpaceOnUse" color-interpolation-filters="sRGB">
<feFlood flood-opacity="0" result="BackgroundImageFix"/>
<feBlend mode="normal" in="SourceGraphic" in2="BackgroundImageFix" result="shape"/>
<feColorMatrix in="SourceAlpha" type="matrix" values="0 0 0 0 0 0 0 0 0 0 0 0 0 0 0 0 0 0 127 0" result="hardAlpha"/>
<feOffset dy="-3"/>
<feComposite in2="hardAlpha" operator="arithmetic" k2="-1" k3="1"/>
<feColorMatrix type="matrix" values="0 0 0 0 0 0 0 0 0 0 0 0 0 0 0 0 0 0 0.3 0"/>
<feBlend mode="normal" in2="shape" result="effect1_innerShadow_256_10002"/>
</filter>
<linearGradient id="paint0_linear_256_10002" x1="24" y1="0" x2="24" y2="48" gradientUnits="userSpaceOnUse">
<stop stop-color="#1E75EF"/>
<stop offset="1" stop-color="#1253D1"/>
</linearGradient>
<linearGradient id="paint1_linear_256_10002" x1="2.89838" y1="1.83115" x2="2.89838" y2="48.0542" gradientUnits="userSpaceOnUse">
<stop stop-color="white"/>
<stop offset="1" stop-color="white" stop-opacity="0"/>
</linearGradient>
<linearGradient id="paint2_linear_256_10002" x1="-10.2676" y1="7.73228" x2="14.2459" y2="32.2457" gradientUnits="userSpaceOnUse">
<stop stop-color="white"/>
<stop offset="1" stop-color="white" stop-opacity="0"/>
</linearGradient>
<linearGradient id="paint3_linear_256_10002" x1="40.3396" y1="28.4599" x2="40.3396" y2="42.0001" gradientUnits="userSpaceOnUse">
<stop stop-color="white"/>
<stop offset="1" stop-color="white" stop-opacity="0"/>
</linearGradient>
<linearGradient id="paint4_linear_256_10002" x1="34.2081" y1="31.2082" x2="45.6243" y2="42.6244" gradientUnits="userSpaceOnUse">
<stop stop-color="white"/>
<stop offset="1" stop-color="white" stop-opacity="0"/>
</linearGradient>
<linearGradient id="paint5_linear_256_10002" x1="23.5772" y1="8.43481" x2="23.5772" y2="36.5322" gradientUnits="userSpaceOnUse">
<stop stop-color="white"/>
<stop offset="0.458333" stop-color="white"/>
<stop offset="1" stop-color="white"/>
</linearGradient>
<clipPath id="clip0_256_10002">
<rect width="48" height="48" rx="12" fill="white"/>
</clipPath>
</defs>
</svg>
